
<svg xmlns:dc="http://purl.org/dc/elements/1.1/" xmlns:cc="http://creativecommons.org/ns#" xmlns:rdf="http://www.w3.org/1999/02/22-rdf-syntax-ns#" xmlns:svg="http://www.w3.org/2000/svg" xmlns="http://www.w3.org/2000/svg" xmlns:sodipodi="http://sodipodi.sourceforge.net/DTD/sodipodi-0.dtd" xmlns:inkscape="http://www.inkscape.org/namespaces/inkscape" version="1.1" x="0px" y="0px" viewBox="0 0 100 125" enable-background="new 0 0 100 100" xml:space="preserve">
  <g>
    <path d="m 48.86,20 c -0.9,0 -1.621,0.72 -1.621,1.62 l 0,7.44 -27.779,43.32 0,-4.92 c 0,-0.899 -0.721,-1.62 -1.561,-1.62 l -2.279,0 c -0.9,0 -1.621,0.721 -1.621,1.62 l 0,10.92 c 0,0.9 0.721,1.62 1.621,1.62 l 68.76,0 0,0 C 85.279,80 86,79.28 86,78.38 l 0,-10.92 c 0,-0.899 -0.721,-1.62 -1.62,-1.62 l -2.28,0 c -0.84,0 -1.56,0.721 -1.56,1.62 l 0,4.92 -27.78,-43.319 0,-7.44 c 0,-0.9 -0.72,-1.62 -1.62,-1.62 l -2.28,0 z m 0,1.62 2.279,0 0,5.58 -2.28,0 0,-5.58 z m 0.36,7.38 0,35.34 c -0.061,2.82 -1.2,6.36 -3.18,9.181 -1.92,2.76 -4.5,4.74 -7.5,4.859 l -21,0 z m 1.56,0 31.68,49.38 -21,0 c -3,-0.119 -5.641,-2.1 -7.5,-4.859 -1.98,-2.82 -3.12,-6.36 -3.18,-9.181 z m -35.16,38.46 2.279,0 0,7.44 -2.279,3.48 0,0 z m 66.48,0 2.28,0 0,10.92 0,0 -2.28,-3.48 z m -32.101,1.561 c 0.601,1.859 1.44,3.78 2.641,5.399 1.08,1.561 2.4,2.94 3.96,3.96 l -13.2,0 c 1.561,-1.02 2.881,-2.399 3.961,-3.96 1.199,-1.619 2.038,-3.54 2.638,-5.399 z" style="" fill="#ffffff"/>
  </g>
</svg>